<?xml version="1.0" encoding="UTF-8"?>
<svg xmlns="http://www.w3.org/2000/svg" xmlns:xlink="http://www.w3.org/1999/xlink" width="512px" height="341px" viewBox="0 0 511 341" version="1.1">
<g id="surface1">
<rect x="0" y="0" width="511" height="341" style="fill:rgb(89.019608%,3.921569%,9.019608%);fill-opacity:1;stroke:none;"/>
<path style=" stroke:none;fill-rule:nonzero;fill:rgb(100%,100%,100%);fill-opacity:1;" d="M 237.046875 170.5 L 314.082031 145.449219 L 266.46875 211.039062 L 266.46875 129.960938 L 314.082031 195.550781 Z M 242.300781 216.085938 C 222.03125 248.148438 183.03125 262.941406 146.625 252.378906 C 110.214844 241.820312 85.164062 208.441406 85.164062 170.5 C 85.164062 132.558594 110.214844 99.179688 146.625 88.621094 C 183.03125 78.058594 222.03125 92.851562 242.300781 124.914062 C 223.4375 103.902344 193.585938 96.707031 167.234375 106.816406 C 140.886719 116.929688 123.488281 142.253906 123.488281 170.5 C 123.488281 198.746094 140.886719 224.070312 167.234375 234.183594 C 193.585938 244.292969 223.4375 237.097656 242.300781 216.085938 Z M 242.300781 216.085938 "/>
</g>
</svg>
